<svg xmlns="http://www.w3.org/2000/svg" width="17" height="17" viewBox="0 0 17 17">
  <g id="tel_footer" transform="translate(-5.5 102.5)">
    <path id="Path_48" data-name="Path 48" d="M146.52,337.842a3.765,3.765,0,0,1-.114.8,4.56,4.56,0,0,1-.239.778,3.046,3.046,0,0,1-1.387,1.2,4.229,4.229,0,0,1-2.716.539,4.574,4.574,0,0,1-.653-.142q-.358-.1-.534-.165t-.631-.233q-.454-.17-.557-.2a10.267,10.267,0,0,1-1.989-.943,19.473,19.473,0,0,1-5.455-5.455,10.283,10.283,0,0,1-.943-1.989q-.034-.1-.2-.557t-.233-.631q-.062-.176-.165-.534a4.683,4.683,0,0,1-.142-.653,4.493,4.493,0,0,1-.04-.6,4.406,4.406,0,0,1,.58-2.114,3.048,3.048,0,0,1,1.2-1.387,4.552,4.552,0,0,1,.778-.239,3.771,3.771,0,0,1,.8-.114.634.634,0,0,1,.239.034q.2.068.6.864.125.215.341.613t.4.721q.182.324.352.608.034.045.2.284a3.192,3.192,0,0,1,.244.4.741.741,0,0,1,.08.324.944.944,0,0,1-.324.568,5.526,5.526,0,0,1-.7.625,6.943,6.943,0,0,0-.7.6.865.865,0,0,0-.324.523.763.763,0,0,0,.057.256,2.375,2.375,0,0,0,.1.233q.039.08.159.273t.131.216A11.265,11.265,0,0,0,139.372,337c.015.007.087.051.216.13s.219.133.273.159a2.452,2.452,0,0,0,.233.1.763.763,0,0,0,.256.057.865.865,0,0,0,.522-.324,6.852,6.852,0,0,0,.6-.7,5.526,5.526,0,0,1,.625-.7.943.943,0,0,1,.568-.324.741.741,0,0,1,.324.08,3.185,3.185,0,0,1,.4.244q.238.165.284.2.284.171.608.352t.722.4q.4.216.614.341.8.4.864.6A.642.642,0,0,1,146.52,337.842Z" transform="translate(-124.52 -427.206)" fill="none" stroke="#989a9f" stroke-width="1"/>
  </g>
</svg>
