<svg xmlns="http://www.w3.org/2000/svg" width="11.794" height="13.611" viewBox="0 0 11.794 13.611">
  <g id="icon_koszyk_button" transform="translate(-58.049 -392.355)">
    <path id="Path_32" data-name="Path 32" d="M68.171,408.155H59.722a1.674,1.674,0,0,1-1.671-1.76l.467-8.916a.441.441,0,0,1,.44-.418h9.975a.441.441,0,0,1,.44.418l.467,8.916a1.674,1.674,0,0,1-1.671,1.76Zm-8.794-10.212-.445,8.5a.792.792,0,0,0,.791.833h8.448a.792.792,0,0,0,.79-.833l-.445-8.5Z" transform="translate(0 -2.188)" fill="#fff"/>
    <path id="Path_33" data-name="Path 33" d="M69.043,397.782a.441.441,0,0,1-.441-.441V395.5a2.266,2.266,0,0,0-4.531,0v1.839a.441.441,0,0,1-.882,0V395.5a3.148,3.148,0,0,1,6.3,0v1.839A.441.441,0,0,1,69.043,397.782Z" transform="translate(-2.39 0)" fill="#fff"/>
  </g>
</svg>
