<svg xmlns="http://www.w3.org/2000/svg" width="15" height="9.643" viewBox="0 0 15 9.643">
  <path id="szczegoly_prod" d="M6.429-4.821A8.228,8.228,0,0,0,3.239-7.776,3.658,3.658,0,0,1,3.75-5.893a3.612,3.612,0,0,1-1.1,2.649A3.612,3.612,0,0,1,0-2.143a3.612,3.612,0,0,1-2.649-1.1,3.612,3.612,0,0,1-1.1-2.649,3.658,3.658,0,0,1,.511-1.883A8.228,8.228,0,0,0-6.429-4.821,8.64,8.64,0,0,0-3.637-2.088,6.891,6.891,0,0,0,0-1.071,6.891,6.891,0,0,0,3.637-2.088,8.64,8.64,0,0,0,6.429-4.821ZM.285-7.751A.387.387,0,0,0,.4-8.036.387.387,0,0,0,.285-8.32.387.387,0,0,0,0-8.437a2.449,2.449,0,0,0-1.8.749,2.449,2.449,0,0,0-.749,1.8.387.387,0,0,0,.117.285.387.387,0,0,0,.285.117.387.387,0,0,0,.285-.117.387.387,0,0,0,.117-.285,1.677,1.677,0,0,1,.511-1.23A1.677,1.677,0,0,1,0-7.634.387.387,0,0,0,.285-7.751ZM7.333-5.4a1.159,1.159,0,0,1,.167.578,1.159,1.159,0,0,1-.167.578A8.88,8.88,0,0,1,4.181-1.159,8.147,8.147,0,0,1,0,0,8.125,8.125,0,0,1-4.181-1.164a8.938,8.938,0,0,1-3.152-3.08A1.159,1.159,0,0,1-7.5-4.821,1.159,1.159,0,0,1-7.333-5.4a8.938,8.938,0,0,1,3.152-3.08A8.125,8.125,0,0,1,0-9.643,8.125,8.125,0,0,1,4.181-8.479,8.938,8.938,0,0,1,7.333-5.4Z" transform="translate(7.5 9.643)" fill="#0c0c0d"/>
</svg>
