<svg xmlns="http://www.w3.org/2000/svg" width="24.293" height="42.031" viewBox="0 0 24.293 42.031">
  <g id="BENEFIT_1" transform="translate(-113.657 -63.118)">
    <path id="Path_35" data-name="Path 35" d="M148.377,95.667c.071.066.141.133.21.2a10.4,10.4,0,0,1,3.126,7.448V117.93" transform="translate(-14.513 -13.53)" fill="none" stroke="#1a1a1a" stroke-linecap="round" stroke-linejoin="round" stroke-width="1.5"/>
    <path id="Path_36" data-name="Path 36" d="M117.761,117.693V103.318a10.4,10.4,0,0,1,2.974-7.3q.175-.18.36-.351" transform="translate(-1.433 -13.533)" fill="none" stroke="#1a1a1a" stroke-linecap="round" stroke-linejoin="round" stroke-width="1.5"/>
    <path id="Path_37" data-name="Path 37" d="M137.136,69.617a27.87,27.87,0,0,1,.606,5.777V91.87a4.42,4.42,0,0,1-4.363,4.475h-5.133a4.42,4.42,0,0,1-4.363-4.475V75.395c0-3.043,1.339-7.642,3.645-9.558l1.391-1.155a2.962,2.962,0,0,1,3.787,0l1.391,1.155a10,10,0,0,1,1.313,1.317" transform="translate(-4.048)" fill="none" stroke="#1a1a1a" stroke-linecap="round" stroke-linejoin="round" stroke-width="1.5"/>
    <line id="Line_2" data-name="Line 2" y1="0.498" transform="translate(122.646 73.478)" fill="none" stroke="#1a1a1a" stroke-linecap="round" stroke-linejoin="round" stroke-width="1.5"/>
    <path id="Path_38" data-name="Path 38" d="M128.792,91.663v-6.8" transform="translate(-6.146 -8.915)" fill="none" stroke="#1a1a1a" stroke-linecap="round" stroke-linejoin="round" stroke-width="1.5"/>
    <g id="Group_15" data-name="Group 15" transform="translate(129.841 65.426)">
      <path id="Path_39" data-name="Path 39" d="M145.835,66.491a2.567,2.567,0,0,0,2.567,2.567" transform="translate(-143.268 -66.491)" fill="none" stroke="#1a1a1a" stroke-linecap="round" stroke-linejoin="round" stroke-width="1.5"/>
      <path id="Path_40" data-name="Path 40" d="M148.4,70.972a2.567,2.567,0,0,0-2.567,2.567" transform="translate(-143.268 -68.405)" fill="none" stroke="#1a1a1a" stroke-linecap="round" stroke-linejoin="round" stroke-width="1.5"/>
      <path id="Path_41" data-name="Path 41" d="M141.354,69.058a2.566,2.566,0,0,0,2.567-2.567" transform="translate(-141.354 -66.491)" fill="none" stroke="#1a1a1a" stroke-linecap="round" stroke-linejoin="round" stroke-width="1.5"/>
      <path id="Path_42" data-name="Path 42" d="M143.921,73.539a2.566,2.566,0,0,0-2.567-2.567" transform="translate(-141.354 -68.405)" fill="none" stroke="#1a1a1a" stroke-linecap="round" stroke-linejoin="round" stroke-width="1.5"/>
    </g>
    <g id="Group_16" data-name="Group 16" transform="translate(114.407 75.72)">
      <path id="Path_43" data-name="Path 43" d="M117.625,84.465a1.843,1.843,0,0,0,1.843,1.843" transform="translate(-115.782 -84.465)" fill="none" stroke="#1a1a1a" stroke-linecap="round" stroke-linejoin="round" stroke-width="1.5"/>
      <path id="Path_44" data-name="Path 44" d="M119.468,87.683a1.843,1.843,0,0,0-1.843,1.844" transform="translate(-115.782 -85.84)" fill="none" stroke="#1a1a1a" stroke-linecap="round" stroke-linejoin="round" stroke-width="1.5"/>
      <path id="Path_45" data-name="Path 45" d="M114.407,86.308a1.843,1.843,0,0,0,1.843-1.843" transform="translate(-114.407 -84.465)" fill="none" stroke="#1a1a1a" stroke-linecap="round" stroke-linejoin="round" stroke-width="1.5"/>
      <path id="Path_46" data-name="Path 46" d="M116.25,89.527a1.843,1.843,0,0,0-1.843-1.844" transform="translate(-114.407 -85.84)" fill="none" stroke="#1a1a1a" stroke-linecap="round" stroke-linejoin="round" stroke-width="1.5"/>
    </g>
  </g>
</svg>
