<svg xmlns="http://www.w3.org/2000/svg" width="61.336" height="42.482" viewBox="0 0 61.336 42.482">
  <g id="BENEFIT_3" transform="translate(-439.512 -75.378)">
    <path id="Path_52" data-name="Path 52" d="M457.3,97.61l1.232-6.938H489.2l-5.445,30.671H453.086l1.008-5.675" transform="translate(-4.067 -4.52)" fill="none" stroke="#1a1a1a" stroke-linecap="round" stroke-linejoin="round" stroke-width="1.5"/>
    <line id="Line_3" data-name="Line 3" y1="0.757" x2="0.143" transform="translate(452.891 94.889)" fill="none" stroke="#1a1a1a" stroke-linecap="round" stroke-linejoin="round" stroke-width="1.5"/>
    <line id="Line_4" data-name="Line 4" y1="8.027" x2="1.631" transform="translate(451.002 97.624)" fill="none" stroke="#1a1a1a" stroke-linecap="round" stroke-linejoin="round" stroke-width="1.5"/>
    <path id="Path_53" data-name="Path 53" d="M461.06,86.152,475.9,76.42h30.671l-14.844,9.731" transform="translate(-6.597)" fill="none" stroke="#1a1a1a" stroke-linecap="round" stroke-linejoin="round" stroke-width="1.5"/>
    <path id="Path_54" data-name="Path 54" d="M498,116.822l14.844-9.731,5.445-30.671" transform="translate(-18.314)" fill="none" stroke="#1a1a1a" stroke-linecap="round" stroke-linejoin="round" stroke-width="1.5"/>
    <line id="Line_5" data-name="Line 5" x2="14.328" transform="translate(450.026 94.606)" fill="none" stroke="#1a1a1a" stroke-linecap="round" stroke-linejoin="round" stroke-width="1.5"/>
    <line id="Line_6" data-name="Line 6" x2="9.319" transform="translate(445.144 97.304)" fill="none" stroke="#1a1a1a" stroke-linecap="round" stroke-linejoin="round" stroke-width="1.5"/>
    <line id="Line_7" data-name="Line 7" x2="1.008" transform="translate(456.182 97.304)" fill="none" stroke="#1a1a1a" stroke-linecap="round" stroke-linejoin="round" stroke-width="1.5"/>
    <line id="Line_8" data-name="Line 8" x2="14.201" transform="translate(440.262 107.527)" fill="none" stroke="#1a1a1a" stroke-linecap="round" stroke-linejoin="round" stroke-width="1.5"/>
    <line id="Line_9" data-name="Line 9" x1="5.2" transform="translate(452.785 110.371)" fill="none" stroke="#1a1a1a" stroke-linecap="round" stroke-linejoin="round" stroke-width="1.5"/>
    <line id="Line_10" data-name="Line 10" x1="1.91" transform="translate(445.356 110.371)" fill="none" stroke="#1a1a1a" stroke-linecap="round" stroke-linejoin="round" stroke-width="1.5"/>
    <path id="Path_55" data-name="Path 55" d="M498.594,76.42l-14.538,9.865-1.295,4.067" transform="translate(-13.479)" fill="none" stroke="#1a1a1a" stroke-linecap="round" stroke-linejoin="round" stroke-width="1.5"/>
    <path id="Path_56" data-name="Path 56" d="M491.165,129.722H484.3l1.366-4.316h6.866Z" transform="translate(-13.967 -15.537)" fill="none" stroke="#1a1a1a" stroke-linecap="round" stroke-linejoin="round" stroke-width="1.5"/>
  </g>
</svg>
