<svg xmlns="http://www.w3.org/2000/svg" width="178.462" height="48" viewBox="0 0 178.462 48">
  <g id="logo_header" transform="translate(-0.01)">
    <g id="shoper-primary-no-bg" transform="translate(0.01)">
      <path id="Path_97" data-name="Path 97" d="M9.6,17.814c0,.931.941,1.675,2.8,2.208l4.487,1.339A11.556,11.556,0,0,1,22.4,24.576a7.786,7.786,0,0,1,1.939,5.346,8.113,8.113,0,0,1-3.11,6.594,12.513,12.513,0,0,1-8.091,2.5A15.015,15.015,0,0,1,4.9,36.77,11.321,11.321,0,0,1,.1,30.695L.01,30.416,6.239,27.47l.139.3A8.563,8.563,0,0,0,9.2,31.194a6.768,6.768,0,0,0,3.935,1.229c1.32,0,3.071-.226,3.071-2.193,0-.974-.83-1.68-2.539-2.155L8.879,26.735a10.863,10.863,0,0,1-5.471-3.273,8.13,8.13,0,0,1-1.934-5.394,8.272,8.272,0,0,1,1.4-4.77,9.3,9.3,0,0,1,3.9-3.182,13.661,13.661,0,0,1,5.7-1.137,13.846,13.846,0,0,1,7.415,1.982,10.81,10.81,0,0,1,4.54,5.6l.106.283L18.2,19.806l-.12-.341a5.135,5.135,0,0,0-2.112-2.644,6.3,6.3,0,0,0-3.5-1,3.6,3.6,0,0,0-2.15.557A1.668,1.668,0,0,0,9.6,17.809Zm40.518-7.448a11.654,11.654,0,0,0-5.754-1.382,11.35,11.35,0,0,0-4.406.825,7.5,7.5,0,0,0-2.635,1.828V0L28.939,1.4v37h8.389V21.624a5.035,5.035,0,0,1,1.349-3.662,5.1,5.1,0,0,1,6.949,0,5.027,5.027,0,0,1,1.349,3.662V38.392h8.389V19.978a11.654,11.654,0,0,0-1.382-5.754,9.932,9.932,0,0,0-3.863-3.863ZM88,16.25A14.523,14.523,0,0,1,90.083,24,14.469,14.469,0,0,1,88,31.722a15.109,15.109,0,0,1-5.557,5.346,16.38,16.38,0,0,1-15.5,0,15,15,0,0,1-5.581-5.346A14.553,14.553,0,0,1,59.283,24a14.618,14.618,0,0,1,2.083-7.75,15.106,15.106,0,0,1,5.581-5.317,16.38,16.38,0,0,1,15.5,0A15.185,15.185,0,0,1,88,16.25ZM81.44,24a7.682,7.682,0,0,0-1.876-5.317A6.227,6.227,0,0,0,74.707,16.6a6.3,6.3,0,0,0-4.881,2.083A7.67,7.67,0,0,0,67.926,24a7.694,7.694,0,0,0,1.9,5.341A6.359,6.359,0,0,0,74.707,31.4a6.265,6.265,0,0,0,4.857-2.054A7.693,7.693,0,0,0,81.435,24Zm41.872-7.611A15.073,15.073,0,0,1,125.26,24a15.2,15.2,0,0,1-1.924,7.582,14.6,14.6,0,0,1-5.245,5.428,15.1,15.1,0,0,1-12.1,1.3,10.315,10.315,0,0,1-3.148-1.68v9.968L94.455,48V9.6h7.875v2.419A11.22,11.22,0,0,1,110.6,8.979a14.182,14.182,0,0,1,7.434,2.006,14.918,14.918,0,0,1,5.269,5.4Zm-18.567,2.27a7.637,7.637,0,0,0-1.9,5.341,7.665,7.665,0,0,0,1.9,5.365A6.39,6.39,0,0,0,109.63,31.4a6.7,6.7,0,0,0,5.015-2.064A7.462,7.462,0,0,0,116.617,24a7.414,7.414,0,0,0-1.972-5.313A6.624,6.624,0,0,0,109.63,16.6,6.293,6.293,0,0,0,104.744,18.659Zm50.544-2.668a15.374,15.374,0,0,1,1.66,7.184c0,.557-.029,1.113-.077,1.656a5.787,5.787,0,0,1-.3,1.445l-.077.216H136.955a6.039,6.039,0,0,0,1.953,3.647,6.451,6.451,0,0,0,4.42,1.516,6.829,6.829,0,0,0,3.369-.782,5.646,5.646,0,0,0,2.169-2.145l.154-.264,6.743,3.2-.12.288a10.629,10.629,0,0,1-4.674,5.13,15.235,15.235,0,0,1-7.741,1.924,15.458,15.458,0,0,1-7.952-2.03,14.06,14.06,0,0,1-5.221-5.461,15.777,15.777,0,0,1-1.843-7.578,15.6,15.6,0,0,1,1.924-7.688,14.429,14.429,0,0,1,5.193-5.322,14.2,14.2,0,0,1,7.381-1.953,14.872,14.872,0,0,1,7.746,1.9,12.738,12.738,0,0,1,4.837,5.1Zm-16.211,1.051a6.077,6.077,0,0,0-1.924,3.124h10.889a5.2,5.2,0,0,0-1.641-3.033,5.333,5.333,0,0,0-3.7-1.305,5.433,5.433,0,0,0-3.628,1.214ZM176.495,9.3a10.8,10.8,0,0,0-4.7.984,6.1,6.1,0,0,0-2.591,2.476V9.6h-7.875V38.4l8.389-1.329V22.92a6.249,6.249,0,0,1,1.656-4.636,5.951,5.951,0,0,1,4.353-1.632h2.75V9.3h-1.977Z" transform="translate(-0.01)" fill="#002fff"/>
    </g>
  </g>
</svg>
