<svg xmlns="http://www.w3.org/2000/svg" width="78.026" height="122" viewBox="0 0 78.026 122">
  <g id="logo_footer" transform="translate(-709.078 -1713.085)">
    <path id="Path_98" data-name="Path 98" d="M7.117-19.634c0,2.517,1.054,3.571,3.571,3.571H27.721c2.517,0,3.571-1.054,3.571-3.571v-4.1H27.428v2.751a1.146,1.146,0,0,1-1.288,1.288H12.5a1.146,1.146,0,0,1-1.288-1.288V-53.642c0-2.517-1.054-3.571-3.571-3.571H3.312v3.629H5.829A1.146,1.146,0,0,1,7.117-52.3ZM32.93-36.9c0,12.058,9.248,21.54,20.955,21.54,11.648,0,20.955-9.482,20.955-21.54A20.8,20.8,0,0,0,53.885-57.915,20.763,20.763,0,0,0,32.93-36.9Zm4.273,0c0-9.717,7.434-17.15,16.682-17.15A16.782,16.782,0,0,1,70.568-36.9c0,9.951-7.492,17.677-16.682,17.677C44.637-19.224,37.2-26.951,37.2-36.9ZM3.078,18.019c0,12.058,9.248,21.54,20.955,21.54,11.648,0,20.955-9.482,20.955-21.54A20.8,20.8,0,0,0,24.033-2.994,20.763,20.763,0,0,0,3.078,18.019Zm4.273,0C7.351,8.3,14.785.869,24.033.869a16.782,16.782,0,0,1,16.682,17.15c0,9.951-7.492,17.677-16.682,17.677C14.785,35.7,7.351,27.97,7.351,18.019ZM53.417,38.857h4.1V19.19h4.507c1.756,0,3.1.176,3.746,1.522L73.26,35.755c1.346,2.751,2.341,3.1,5.678,3.1H81.1V35.228H79.933c-1.522,0-2.4-.117-2.985-1.346L69.807,19.717c-1-1.99-1.99-2.341-1.99-2.341v-.117a6.727,6.727,0,0,0,2.107-2.283L80.518-2.292H75.836L65.885,14.1c-.7,1.171-1.932,1.463-3.453,1.463H57.514V1.279c0-2.517-1.054-3.571-3.571-3.571H49.612V1.337h2.517a1.146,1.146,0,0,1,1.288,1.288Z" transform="translate(706 1771)" fill="#fff"/>
    <path id="Path_99" data-name="Path 99" d="M1.036-8.845A5.313,5.313,0,0,0,5.01-7.063a3.508,3.508,0,0,0,3.8-3.458c0-4.135-6.185-3.422-6.185-6.327,0-1.069.945-2.014,2.566-2.014,1.158,0,2.192.553,2.192,1.3v.588H8.557v-.891c0-1.64-2.174-2.157-3.386-2.157-2.317,0-3.832,1.461-3.832,3.208,0,3.885,6.185,3.262,6.185,6.363A2.293,2.293,0,0,1,5.046-8.221,4.574,4.574,0,0,1,1.8-9.754ZM9.947-7.277h8.323c.766,0,1.087-.321,1.087-1.087V-9.611H18.2v.838a.349.349,0,0,1-.392.392h-5.4a8.929,8.929,0,0,0-.927.036v-.036a10.671,10.671,0,0,0,.927-1.141l6.7-9.41v-.873h-7.9c-.766,0-1.087.321-1.087,1.087v1.248h1.158v-.838a.349.349,0,0,1,.392-.392h4.99a8.728,8.728,0,0,0,.909-.036v.036a12.114,12.114,0,0,0-.909,1.141L9.947-8.15Zm10.123,0h.588c.891,0,1.141-.178,1.461-1.034l1.105-2.959H28.2L29.285-8.31c.321.855.588,1.034,1.479,1.034h.57V-8.382h-.214c-.339,0-.517-.053-.642-.392l-4.1-11.032H25.043l-4.1,11.032c-.125.339-.321.392-.642.392h-.232Zm3.493-5.08L25.2-16.83c.214-.588.481-1.622.481-1.622h.036s.267,1.034.481,1.622l1.658,4.474Zm9.874,3.992c0,.766.321,1.087,1.087,1.087h3.226a3.44,3.44,0,0,0,3.743-3.511,3.049,3.049,0,0,0-2.1-3.1v-.036a2.883,2.883,0,0,0,1.6-2.727,3.1,3.1,0,0,0-3.386-3.155H32.279V-18.7h1.158Zm1.248-6.006V-18.7h2.887a2,2,0,0,1,2.139,2.139,2.05,2.05,0,0,1-2.121,2.192Zm0,5.6V-13.3h3.048a2.334,2.334,0,0,1,2.46,2.477,2.266,2.266,0,0,1-2.442,2.442H35.078A.349.349,0,0,1,34.686-8.774Zm9.589.41c0,.766.321,1.087,1.087,1.087h5.186c.766,0,1.087-.321,1.087-1.087V-9.611H50.459v.838a.349.349,0,0,1-.392.392H45.914a.349.349,0,0,1-.392-.392v-9.945c0-.766-.321-1.087-1.087-1.087H43.116V-18.7h.766a.349.349,0,0,1,.392.392Zm7.86-5.258a6.415,6.415,0,0,0,6.381,6.559A6.426,6.426,0,0,0,64.9-13.622a6.333,6.333,0,0,0-6.381-6.4A6.322,6.322,0,0,0,52.134-13.622Zm1.3,0a5.1,5.1,0,0,1,5.08-5.222,5.11,5.11,0,0,1,5.08,5.222,5.206,5.206,0,0,1-5.08,5.383A5.2,5.2,0,0,1,53.435-13.622ZM66.3-7.277h1.319c.766,0,1.087-.321,1.087-1.087v-7.842c0-.659-.107-1.622-.107-1.622h.036s.588,1.016,1.034,1.622l6.4,8.929h1.141V-18.309A.349.349,0,0,1,77.6-18.7h.766v-1.105H77.05c-.766,0-1.087.321-1.087,1.087v7.842c0,.659.089,1.64.089,1.64h-.036s-.588-1.016-1.016-1.64l-6.4-8.929H67.462V-8.774a.349.349,0,0,1-.392.392H66.3Z" transform="translate(708.734 1842.148)" fill="#fff"/>
  </g>
</svg>
